# xmcd CD database file
#
# Track frame offsets:
#	150
#	16857
#	28891
#	40231
#	52703
#	64585
#	79454
#	94223
#	109628
#	123242
#	142083
#	160152
#	173739
#	183349
#	197301
#
# Disc length: 2805 seconds
#
# Revision: 0
# Processed by: cddbd v1.4PL0 Copyright (c) Steve Scherf et al.
# Submitted via: CDex 1.50Beta6
#
DISCID=bd0af30f
DTITLE=Trinity - The Exciting Life 
DYEAR=2000
DGENRE=Jazz
TTITLE0=Big Time
TTITLE1=Love Is A Bore
TTITLE2=Twisted
TTITLE3=Roller Coaster Blues
TTITLE4=Secret Agent Man
TTITLE5=Fever
TTITLE6=Knowing When To Leave
TTITLE7=Feeling Good
TTITLE8=Wives and Lovers
TTITLE9=Imagine My Frustration
TTITLE10=I'm Still Here
TTITLE11=When In Rome
TTITLE12=More
TTITLE13=Eadie Was A Lady
TTITLE14=The Exciting Life
EXTD=YEAR: 2000
EXTT0=
EXTT1=
EXTT2=
EXTT3=
EXTT4=
EXTT5=
EXTT6=
EXTT7=
EXTT8=
EXTT9=
EXTT10=
EXTT11=
EXTT12=
EXTT13=
EXTT14=
PLAYORDER=
